<svg width="106" height="106" viewBox="0 0 106 106" fill="" xmlns="http://www.w3.org/2000/svg">
<path d="M23.9001 54C23.9001 76.1008 39.3224 94.4274 59.4689 97.748C56.0315 98.5645 52.447 99 48.7707 99C23.4773 99 3 78.8589 3 54C3 29.1411 23.4773 9 48.7523 9C52.447 9 56.0315 9.43548 59.4505 10.252C39.304 13.5726 23.9001 31.8992 23.9001 54ZM78.5675 72.1996C64.2849 82.252 45.5538 80.8186 34.3777 69.5504C35.3887 72.1089 36.7122 74.5766 38.3666 76.8992C49.6897 92.9032 71.8949 96.7319 87.9422 85.4274C103.99 74.123 107.813 51.9859 96.4898 35.9637C94.8354 33.623 92.9421 31.5544 90.8833 29.7581C97.7581 44.0565 92.8502 62.1472 78.5675 72.1996ZM38.3482 27.9254C38.0908 28.1069 37.8519 28.3065 37.6129 28.4879C49.4324 25.2581 62.5938 29.2137 70.4979 39.4657C77.0602 47.9939 78.3837 58.8085 74.9831 68.1351C85.4056 57.9375 87.4092 42.3508 79.0822 31.5181C69.8913 19.6331 51.675 18.0181 38.3482 27.9254ZM57.4101 48.1936C56.6013 48.1936 55.9395 47.5403 55.9395 46.7419V39.4839C55.9395 38.6855 55.2778 38.0323 54.469 38.0323H45.6457C44.8369 38.0323 44.1752 38.6855 44.1752 39.4839V46.7419C44.1752 47.5403 43.5135 48.1936 42.7047 48.1936H35.3519C34.5431 48.1936 33.8814 48.8468 33.8814 49.6452V58.3548C33.8814 59.1532 34.5431 59.8065 35.3519 59.8065H42.7047C43.5135 59.8065 44.1752 60.4597 44.1752 61.2581V68.5161C44.1752 69.3145 44.8369 69.9677 45.6457 69.9677H54.469C55.2778 69.9677 55.9395 69.3145 55.9395 68.5161V61.2581C55.9395 60.4597 56.6013 59.8065 57.4101 59.8065H64.7628C65.5716 59.8065 66.2333 59.1532 66.2333 58.3548V49.6452C66.2333 48.8468 65.5716 48.1936 64.7628 48.1936H57.4101Z" fill="rgb(35, 114, 171)"/>
</svg>
