<svg width="60" height="60" viewBox="0 0 60 60" fill="none" xmlns="http://www.w3.org/2000/svg">
<path d="M11.5651 22.195C12.5641 19.82 14.0161 17.6624 15.8401 15.8425C17.66 14.0175 19.8187 12.5653 22.1951 11.5675C27.0938 9.53233 32.5945 9.49554 37.5201 11.465C37.5695 13.0837 38.2478 14.6194 39.4109 15.7462C40.5741 16.8729 42.1306 17.5021 43.75 17.5C47.215 17.5 50.0001 14.715 50.0001 11.25C50.0001 7.785 47.215 5 43.75 5C42.0275 5 40.4701 5.69 39.3426 6.8125C33.2651 4.38 26.2851 4.4175 20.2551 6.96C17.2801 8.21 14.6051 10.01 12.3051 12.3075C9.98274 14.6305 8.14198 17.3892 6.8884 20.4254C5.63482 23.4615 4.9931 26.7153 5.00006 30H10.0001C10.0001 27.285 10.5276 24.66 11.5651 22.195ZM48.4326 37.805C47.43 40.185 45.9901 42.325 44.1576 44.1575C42.3251 45.99 40.1851 47.43 37.8026 48.4325C32.9038 50.4677 27.4031 50.5045 22.4776 48.535C22.4294 46.9163 21.7518 45.3803 20.5889 44.2533C19.426 43.1263 17.8694 42.4973 16.2501 42.5C12.7851 42.5 10.0001 45.285 10.0001 48.75C10.0001 52.215 12.7851 55 16.2501 55C17.9726 55 19.5301 54.31 20.6576 53.1875C23.6265 54.3859 26.7984 55.0013 30.0001 55C34.9164 55.0095 39.726 53.5667 43.8254 50.8528C47.9248 48.1389 51.1313 44.2746 53.0425 39.745C54.3413 36.6606 55.0069 33.3467 55.0001 30H50.0001C50.0063 32.6805 49.4732 35.3348 48.4326 37.805Z" fill="#174C72"/>
<path d="M30 18.655C23.745 18.655 18.655 23.745 18.655 30C18.655 36.255 23.745 41.345 30 41.345C36.255 41.345 41.345 36.255 41.345 30C41.345 23.745 36.255 18.655 30 18.655Z" fill="#174C72"/>
</svg>
